<svg width="296" height="295" viewBox="0 0 296 295" fill="none" xmlns="http://www.w3.org/2000/svg">
<rect width="296" height="295" fill="#F5F5F5"/>
<rect width="296" height="295" fill="white"/>
<path d="M267.584 137.47L274.096 29.5C274.688 17.7 265.216 8.26 253.968 8.26H42.032C30.192 8.26 21.312 17.7 21.904 29.5L33.744 222.43L267.584 137.47V137.47Z" fill="#F56991"/>
<path d="M273.504 44.84L274.688 30.09C275.28 18.29 265.808 8.85 254.56 8.85H42.032C30.192 8.85 21.312 18.29 21.904 30.09L28.416 133.93L273.504 44.84Z" fill="#DC5E82"/>
<path d="M151.552 292.64C148.592 292.64 145.04 292.05 142.08 290.87L44.992 254.88C34.928 251.34 28.416 241.9 27.824 231.28L15.392 30.09C15.392 23.01 17.76 15.93 23.088 10.62C28.416 5.31 34.928 2.36 42.624 2.36H254.56C261.664 2.36 268.768 5.31 274.096 10.62C279.424 15.93 281.792 23.01 281.2 30.09L268.768 231.87C268.768 235.41 265.808 237.77 262.256 237.77C258.704 237.77 256.336 234.82 256.336 231.28L267.584 29.5C267.584 25.96 266.4 21.83 264.032 19.47C261.072 16.52 257.52 15.34 253.968 15.34H42.032C37.888 15.34 34.336 17.11 31.968 19.47C29.008 21.83 27.824 25.37 28.416 29.5L40.848 230.69C40.848 236.59 44.992 241.31 49.728 243.08L146.816 279.07C149.776 280.25 153.92 280.25 156.88 279.07L182.928 269.63C185.888 268.45 190.032 270.22 191.216 273.17C192.4 276.71 190.624 280.25 187.664 281.43L161.616 290.87C158.064 292.05 154.512 292.64 151.552 292.64V292.64Z" fill="#031326"/>
<path d="M256 233L261.5 139.5L40 220L41 232L41.5 234L42.5 237L44 239L46 241L48.5 242.5L147 279L150 280H152.5L155.5 279.5L183 269.5L256 233Z" fill="white" stroke="white"/>
<path d="M111.7 183.622C109.924 183.622 108.74 183.032 106.964 181.852L74.996 149.992C69.668 144.682 69.668 135.242 74.996 129.932L106.964 98.0718C109.332 95.7118 113.476 95.7118 115.844 98.0718C118.212 100.432 118.212 104.562 115.844 106.922L83.876 138.782C83.284 139.372 83.284 140.552 83.876 141.142L115.844 173.002C118.212 175.362 118.212 179.492 115.844 181.852C114.66 183.032 112.884 183.622 111.7 183.622ZM185.108 183.622C183.332 183.622 182.148 183.032 180.372 181.852C178.004 179.492 178.004 175.362 180.372 173.002L212.34 141.142C212.932 140.552 212.932 139.962 212.932 139.962C212.932 139.372 212.932 139.372 212.34 138.782L180.372 106.922C178.004 104.562 178.004 100.432 180.372 98.0718C182.74 95.7118 186.884 95.7118 189.252 98.0718L221.22 129.932C226.548 135.242 226.548 144.682 221.22 149.992L189.844 181.852C188.66 183.032 186.884 183.622 185.108 183.622V183.622ZM131.828 207.812H130.052C126.5 206.632 124.724 203.682 125.316 200.142L158.468 76.8318C159.652 73.2918 162.612 71.5218 166.164 72.1118C169.716 73.2918 171.492 76.2418 170.9 79.7818L137.748 203.092C137.156 206.042 134.788 207.812 131.828 207.812Z" fill="#031326"/>
</svg>
